<svg xmlns="http://www.w3.org/2000/svg" xmlns:xlink="http://www.w3.org/1999/xlink" width="35" height="35" viewBox="0 0 35 35">
  <defs>
    <clipPath id="clip-path">
      <rect id="Rectangle_2320" data-name="Rectangle 2320" width="35" height="35" transform="translate(462 1736)" fill="#801818"/>
    </clipPath>
  </defs>
  <g id="Mask_Group_20" data-name="Mask Group 20" transform="translate(-462 -1736)" clip-path="url(#clip-path)">
    <g id="invoice" transform="translate(462 1737.414)">
      <path id="Path_225" data-name="Path 225" d="M32.423.128a.777.777,0,0,0-.408-.116H8.75A3.613,3.613,0,0,0,5.122,3.6L4.986,23.633H.781A.781.781,0,0,0,0,24.414v3.609a4.806,4.806,0,0,0,4.8,4.8.79.79,0,0,0,.161-.016H24.373c.116.008.232.014.35.014a4.881,4.881,0,0,0,4.872-4.879V16.231h5.266a.781.781,0,0,0,.781-.781V3.852A3.786,3.786,0,0,0,32.423.128ZM1.563,28.024V25.2H19.85v2.748a4.863,4.863,0,0,0,1.29,3.3H4.694a.777.777,0,0,0-.11.009,3.242,3.242,0,0,1-3.022-3.231ZM28.032,3.852v24.09a3.336,3.336,0,0,1-3.2,3.315.778.778,0,0,0-.128-.011h-.275a3.341,3.341,0,0,1-3.013-3.3V24.414a.781.781,0,0,0-.781-.781H6.548L6.685,3.6A2.05,2.05,0,0,1,8.75,1.574H28.808a3.729,3.729,0,0,0-.776,2.278ZM34.08,14.669H29.595V3.852a2.243,2.243,0,0,1,4.485,0Zm0,0" transform="translate(0 -0.012)" fill="#801818"/>
      <path id="Path_226" data-name="Path 226" d="M13.756,11.256h7.4a.781.781,0,0,0,0-1.563h-7.4a.781.781,0,1,0,0,1.563Zm0,0" transform="translate(-3.726 -2.792)" fill="#801818"/>
      <path id="Path_227" data-name="Path 227" d="M27.559,17.529h-13.8a.781.781,0,1,0,0,1.563h13.8a.781.781,0,1,0,0-1.563Zm0,0" transform="translate(-3.726 -5.042)" fill="#801818"/>
      <path id="Path_228" data-name="Path 228" d="M27.559,25.365h-13.8a.781.781,0,0,0,0,1.563h13.8a.781.781,0,1,0,0-1.563Zm0,0" transform="translate(-3.726 -7.292)" fill="#801818"/>
    </g>
  </g>
</svg>
